<!-- icon666.com - MILLIONS vector ICONS FREE --><svg id="Layer_1" viewBox="0 0 1000 1000" xmlns="http://www.w3.org/2000/svg" data-name="Layer 1"><path d="m899.12 916h-798.24a16 16 0 0 1 0-32h798.24a16 16 0 0 1 0 32z"></path><path d="m632.76 831.35h-265.52a16 16 0 0 1 0-32h265.52a16 16 0 0 1 0 32z"></path><path d="m282.66 916a100.59 100.59 0 1 1 100.59-100.59 100.7 100.7 0 0 1 -100.59 100.59zm0-169.17a68.59 68.59 0 1 0 68.59 68.58 68.66 68.66 0 0 0 -68.59-68.58z"></path><path d="m282.66 865.17a49.76 49.76 0 1 1 49.76-49.76 49.81 49.81 0 0 1 -49.76 49.76zm0-67.52a17.76 17.76 0 1 0 17.76 17.76 17.78 17.78 0 0 0 -17.76-17.76z"></path><path d="m717.34 865.17a49.76 49.76 0 1 1 49.76-49.76 49.81 49.81 0 0 1 -49.76 49.76zm0-67.52a17.76 17.76 0 1 0 17.76 17.76 17.78 17.78 0 0 0 -17.76-17.76z"></path><path d="m717.34 916a100.59 100.59 0 1 1 100.59-100.59 100.7 100.7 0 0 1 -100.59 100.59zm0-169.17a68.59 68.59 0 1 0 68.59 68.58 68.66 68.66 0 0 0 -68.59-68.58z"></path><path d="m546.54 680.78h-39.83a16 16 0 0 1 0-32h39.83a16 16 0 0 1 0 32z"></path><path d="m343.89 680.78h-39.83a16 16 0 1 1 0-32h39.83a16 16 0 0 1 0 32z"></path><path d="m456.19 831.35a16 16 0 0 1 -16-16v-205a16 16 0 0 1 32 0v205a16 16 0 0 1 -16 16z"></path><path d="m133.61 626.34a16 16 0 0 1 0-32h324.55a16 16 0 0 1 0 32z"></path><path d="m822.35 831.35h-20.43a16 16 0 0 1 0-32h20.43a28.07 28.07 0 0 0 28-28v-116.41a28.66 28.66 0 0 0 -28.63-28.62h-139.72a16 16 0 0 1 -15.23-11.09l-36.42-113.06a13.52 13.52 0 0 0 -12.54-8.55h-454.72a13.5 13.5 0 0 0 -13.48 13.47v264.22a28.07 28.07 0 0 0 28 28h20.43a16 16 0 1 1 0 32h-20.39a60.1 60.1 0 0 1 -60-60v-264.22a45.53 45.53 0 0 1 45.48-45.47h454.68a45.63 45.63 0 0 1 42.65 29.71c.08.21.16.42.22.63l33 102.36h128.08a60.69 60.69 0 0 1 60.63 60.62v116.37a60.1 60.1 0 0 1 -60.04 60.04z"></path><path d="m682 754.54a16 16 0 0 1 -16-16v-112.21h-207.84a16 16 0 1 1 0-32h223.84a16 16 0 0 1 16 16v128.21a16 16 0 0 1 -16 16z"></path><path d="m866.39 700.62h-57.6a46.08 46.08 0 0 1 -46-46v-44.29a16 16 0 0 1 16-16h44.14a16 16 0 0 1 0 32h-28.16v28.26a14 14 0 0 0 14 14h41.6v-13.65a16 16 0 0 1 32 0v29.68a16 16 0 0 1 -15.98 16z"></path><path d="m489.24 626.34a16 16 0 0 1 -16-16v-132.71a16 16 0 0 1 32 0v132.71a16 16 0 0 1 -16 16z"></path><path d="m306.44 626.34a16 16 0 0 1 -16-16v-132.71a16 16 0 0 1 32 0v132.71a16 16 0 0 1 -16 16z"></path><path d="m328.82 493.62h-134.61a16 16 0 0 1 -16-16v-93.09a16 16 0 0 1 16-16h134.61a16 16 0 0 1 16 16v93.09a16 16 0 0 1 -16 16zm-118.61-32h102.61v-61.09h-102.61z"></path><path d="m492.16 493.62h-163.34a16 16 0 0 1 -16-16v-93.08a16 16 0 0 1 32 0v77.08h131.34v-136.07a16 16 0 0 1 32 0v152.07a16 16 0 0 1 -16 16z"></path><path d="m492.16 400.53h-298a16 16 0 0 1 -16-16v-73.21a43.12 43.12 0 0 1 43.08-43.07h243.84a43.12 43.12 0 0 1 43.08 43.07v73.21a16 16 0 0 1 -16 16zm-282-32h266v-57.21a11.09 11.09 0 0 0 -11.08-11.07h-243.79a11.09 11.09 0 0 0 -11.08 11.07z"></path><path d="m586.69 493.62h-94.53a16 16 0 0 1 -16-16v-143.23a16 16 0 0 1 16-16h67.45a43.12 43.12 0 0 1 43.08 43.08v116.15a16 16 0 0 1 -16 16zm-78.53-32h62.53v-100.15a11.09 11.09 0 0 0 -11.08-11.08h-51.45z"></path><path d="m358.31 400.53a16 16 0 0 1 -16-16v-100.28a16 16 0 0 1 32 0v100.28a16 16 0 0 1 -16 16z"></path><path d="m778.29 321.32a81.8 81.8 0 1 1 81.79-81.8 81.88 81.88 0 0 1 -81.79 81.8zm0-131.59a49.8 49.8 0 1 0 49.79 49.79 49.85 49.85 0 0 0 -49.79-49.79z"></path><path d="m778.29 147.76a16 16 0 0 1 -16-16v-31.76a16 16 0 0 1 32 0v31.76a16 16 0 0 1 -16 16z"></path><path d="m778.29 395.05a16 16 0 0 1 -16-16v-31.76a16 16 0 1 1 32 0v31.76a16 16 0 0 1 -16 16z"></path><path d="m685 201.65a16 16 0 0 1 -8-2.15l-27.5-15.88a16 16 0 1 1 16-27.71l27.5 15.88a16 16 0 0 1 -8 29.86z"></path><path d="m899.11 325.29a15.88 15.88 0 0 1 -8-2.15l-27.51-15.88a16 16 0 0 1 16-27.71l27.51 15.88a16 16 0 0 1 -8 29.86z"></path><path d="m657.47 325.29a16 16 0 0 1 -8-29.86l27.53-15.88a16 16 0 1 1 16 27.71l-27.5 15.88a15.88 15.88 0 0 1 -8.03 2.15z"></path><path d="m871.63 201.65a16 16 0 0 1 -8-29.86l27.51-15.88a16 16 0 1 1 16 27.71l-27.53 15.88a16 16 0 0 1 -7.98 2.15z"></path></svg>