<!-- icon666.com - MILLIONS vector ICONS FREE --><svg viewBox="0 0 128 128" xmlns="http://www.w3.org/2000/svg"><g><g fill="#5e3369"><path d="m83.363 56.976v-10.75a4.5 4.5 0 0 1 9 0v10.75z"></path><path d="m97.863 65.656v-10.75a4.5 4.5 0 0 1 9 0v10.75z"></path><path d="m44.637 56.976v-10.75a4.5 4.5 0 0 0 -9 0v10.75z"></path><path d="m30.137 65.656v-10.75a4.5 4.5 0 0 0 -9 0v10.75z"></path></g><g fill="#ccd8e2"><path d="m15.082 77.16v-12.692l42.542-26.611v22.594z"></path><path d="m112.918 77.16v-12.692l-42.542-26.611v22.594z"></path><path d="m40.168 115.432v-9.071l20.726-12.929v12.647z"></path><path d="m87.832 115.432v-9.071l-20.726-12.929v12.647z"></path></g><path d="m54.54 81.335v-54.968a19.5 19.5 0 0 1 4.42-12.362l1.84-2.239a4.144 4.144 0 0 1 6.408 0l1.836 2.239a19.5 19.5 0 0 1 4.42 12.362v54.968a61.268 61.268 0 0 1 -4.125 22.1l-3.283 8.487a2.2 2.2 0 0 1 -4.1 0l-3.283-8.487a61.246 61.246 0 0 1 -4.133-22.1z" fill="#eaeff4"></path></g><path d="m26.413 72.711a1.749 1.749 0 0 1 .988-2.269l.341-.134a1.749 1.749 0 1 1 1.281 3.256l-.341.135a1.748 1.748 0 0 1 -2.269-.988zm-13.081 4.449v-12.692a1.753 1.753 0 0 1 .822-1.484l5.233-3.273v-4.8a6.244 6.244 0 0 1 11.905-2.642l2.595-1.623v-4.42a6.236 6.236 0 0 1 11.747-2.933l7.156-4.477v-12.449a1.75 1.75 0 1 1 3.5 0v54.968a59.27 59.27 0 0 0 4.01 21.465l1.953 5.047v-9.254a1.75 1.75 0 0 1 3.5 0v9.258l1.947-5.051a59.293 59.293 0 0 0 4.01-21.465v-22.293a1.75 1.75 0 0 1 3.5 0v1.428l35.958 14.123v-9.155l-35.958-22.493v3.2a1.75 1.75 0 0 1 -3.5 0v-19.778a17.8 17.8 0 0 0 -4.023-11.253l-1.836-2.238a2.47 2.47 0 0 0 -3.7 0l-1.836 2.239a1.75 1.75 0 0 1 -2.706-2.22l1.836-2.239a5.894 5.894 0 0 1 9.114 0l1.834 2.244a21.3 21.3 0 0 1 4.817 13.467v12.449l7.156 4.477a6.236 6.236 0 0 1 11.747 2.933v4.415l2.595 1.623a6.251 6.251 0 0 1 5.655-3.608 1.75 1.75 0 0 1 0 3.5 2.745 2.745 0 0 0 -2.632 2l5.382 3.367v-2.617a1.75 1.75 0 0 1 3.5 0v4.805l5.233 3.273a1.753 1.753 0 0 1 .822 1.484v12.692a1.75 1.75 0 0 1 -2.39 1.629l-37.068-14.559v17.1a62.811 62.811 0 0 1 -1.6 14.092l15.147 9.448a1.75 1.75 0 0 1 .824 1.485v9.072a1.75 1.75 0 0 1 -2.47 1.595l-14.371-6.481a1.75 1.75 0 1 1 1.44-3.19l11.9 5.371v-5.391l-13.4-8.357c-.5 1.714-1.068 3.413-1.717 5.091l-3.283 8.487a3.929 3.929 0 0 1 -1.934 2.121v3.077a1.75 1.75 0 0 1 -3.5 0v-3.077a3.927 3.927 0 0 1 -1.934-2.122l-1.412-3.651-18.014 8.13a1.75 1.75 0 0 1 -2.47-1.595v-9.075a1.75 1.75 0 0 1 .824-1.485l15.147-9.448a62.8 62.8 0 0 1 -1.6-14.092v-17.105l-18.545 7.285a1.75 1.75 0 0 1 -1.279-3.258l19.827-7.787v-17.525l-35.958 22.493v9.155l5.768-2.267a1.75 1.75 0 0 1 1.279 3.258l-8.16 3.2a1.75 1.75 0 0 1 -2.39-1.629zm72.02-32 5.261 3.291v-2.225a2.735 2.735 0 0 0 -5.261-1.065zm-27.715 60.468-.6-1.563c-.649-1.677-1.216-3.377-1.717-5.091l-13.4 8.357v5.391zm-20.25-57.176 5.261-3.291a2.735 2.735 0 0 0 -5.261 1.065zm-14.5 9.07 5.382-3.367a2.742 2.742 0 0 0 -5.382.751zm50.573-3.112a1.751 1.751 0 0 0 1.75-1.75v-.511a1.75 1.75 0 0 0 -3.5 0v.511a1.751 1.751 0 0 0 1.75 1.75zm-18.222-33.5a1.747 1.747 0 0 0 2.267-.992l.134-.334a1.75 1.75 0 1 0 -3.239-1.334l-.156.388a1.75 1.75 0 0 0 .994 2.267zm4 6.355a1.75 1.75 0 0 0 1.75-1.75 2.875 2.875 0 0 1 5.75 0 1.75 1.75 0 1 0 3.5 0 6.375 6.375 0 0 0 -12.75 0 1.749 1.749 0 0 0 1.753 1.745z" fill="#180330"></path></svg>