<!-- icon666.com - MILLIONS vector ICONS FREE --><svg version="1.1" id="Capa_1" xmlns="http://www.w3.org/2000/svg" xmlns:xlink="http://www.w3.org/1999/xlink" x="0px" y="0px" viewBox="0 0 511.999 511.999" style="enable-background:new 0 0 511.999 511.999;" xml:space="preserve"><g><g><path d="M336.161,216.436h-48.614V47.064h0.518c8.556,0,15.516-6.96,15.516-15.516V15.516C303.581,6.96,296.62,0,288.064,0 h-64.129c-8.556,0-15.516,6.96-15.516,15.516v16.032c0,8.556,6.96,15.516,15.516,15.516h0.515v169.371h-48.611 c-17.396,0-31.548,14.152-31.548,31.548v200.403c0,11.758,6.47,22.027,16.032,27.453v20.644c0,8.556,6.96,15.516,15.516,15.516 h16.032c8.556,0,15.516-6.96,15.516-15.516v-16.548h97.226v16.548c0,8.556,6.96,15.516,15.516,15.516h16.032 c8.556,0,15.516-6.96,15.516-15.516V475.84c9.562-5.426,16.032-15.695,16.032-27.453V247.984 C367.709,230.588,353.557,216.436,336.161,216.436z M223.935,32.064c-0.284,0-0.516-0.231-0.516-0.516V15.516 c0-0.285,0.231-0.516,0.516-0.516h64.129c0.285,0,0.516,0.231,0.516,0.516v16.032c0,0.285-0.231,0.516-0.516,0.516H223.935z M272.547,47.064v169.371H239.45V47.064H272.547z M192.387,496.484c0,0.285-0.231,0.516-0.516,0.516h-16.032 c-0.285,0-0.516-0.231-0.516-0.516v-16.548h0.516h16.548V496.484z M336.677,496.484c0,0.285-0.231,0.516-0.516,0.516h-16.032 c-0.285,0-0.516-0.231-0.516-0.516v-16.548h16.548h0.516V496.484z M352.709,448.387c0,9.125-7.423,16.548-16.548,16.548H175.839 c-9.125,0-16.548-7.423-16.548-16.548V247.984c0-9.125,7.423-16.548,16.548-16.548h160.322c9.125,0,16.548,7.423,16.548,16.548 V448.387z"></path></g></g><g><g><path d="M304.096,304.613h-96.193c-17.396,0-31.548,14.152-31.548,31.548v80.162c0,17.396,14.152,31.548,31.548,31.548h96.193 c17.396,0,31.548-14.152,31.548-31.548v-80.162C335.645,318.765,321.493,304.613,304.096,304.613z M320.645,416.323 c0,9.125-7.423,16.548-16.548,16.548h-96.193c-9.125,0-16.548-7.423-16.548-16.548v-80.162c0-9.125,7.423-16.548,16.548-16.548 h96.193c9.125,0,16.548,7.423,16.548,16.548V416.323z"></path></g></g><g><g><path d="M296.081,336.677h-80.161c-4.142,0-7.5,3.358-7.5,7.5c0,4.142,3.358,7.5,7.5,7.5h56.629v8.532c0,4.142,3.358,7.5,7.5,7.5 c4.142,0,7.5-3.358,7.5-7.5v-8.532h8.532c4.142,0,7.5-3.358,7.5-7.5C303.581,340.035,300.223,336.677,296.081,336.677z"></path></g></g><g><g><path d="M328.145,248.5h-16.032c-4.142,0-7.5,3.358-7.5,7.5c0,4.142,3.358,7.5,7.5,7.5h16.032c4.142,0,7.5-3.358,7.5-7.5 C335.645,251.858,332.286,248.5,328.145,248.5z"></path></g></g><g><g><path d="M280.048,248.5h-96.193c-4.142,0-7.5,3.358-7.5,7.5c0,4.142,3.358,7.5,7.5,7.5h96.193c4.142,0,7.5-3.358,7.5-7.5 C287.548,251.858,284.19,248.5,280.048,248.5z"></path></g></g></svg>